<svg xmlns="http://www.w3.org/2000/svg" xmlns:xlink="http://www.w3.org/1999/xlink" version="1.1" width="256" height="256" viewBox="0 0 256 256" xml:space="preserve">
<desc>Created with Fabric.js 1.7.22</desc>
<defs>
</defs>
<g transform="translate(128 128) scale(0.72 0.72)" style="">
	<g style="stroke: none; strokeWidth: 0; stroke-dasharray: none; strokeLinecap: butt; strokeLinejoin: miter; stroke-miterlimit: 10; fill: none; fillRule: nonzero; opacity: 1;" transform="translate(-175.05 -175.05000000000004) scale(3.89 3.89)" >
	<path d="M 45 58.99 c 13.984 0.417 26.798 10.469 37.853 12.694 c 14.458 3.737 0.353 -49.496 -10.995 -53.143 C 66.482 16.445 54.135 22.982 45 23.32 c -9.586 0 -21.482 -6.875 -26.858 -4.779 C 6.793 22.188 -7.312 75.421 7.147 71.685 C 18.202 69.459 31.467 59.295 45 58.99 z" style="stroke: none; strokeWidth: 1; stroke-dasharray: none; strokeLinecap: butt; strokeLinejoin: miter; stroke-miterlimit: 10; fill: rgb(59,59,59); fillRule: nonzero; opacity: 1;" transform=" matrix(1 0 0 1 0 0) " strokeLinecap="round" />
	<path d="M 5.748 72.881 c -2.396 0 -4.175 -1.606 -5.06 -4.662 C -2.786 56.224 7.83 20.805 17.836 17.589 c 3.122 -1.22 7.867 0.214 13.361 1.874 C 35.63 20.803 40.655 22.32 45 22.32 c 3.892 -0.145 8.464 -1.482 12.885 -2.775 c 5.918 -1.73 11.028 -3.226 14.337 -1.935 c 9.949 3.195 20.564 38.614 17.091 50.609 c -1.071 3.702 -3.457 5.277 -6.709 4.434 c -4.574 -0.919 -9.417 -3.148 -14.544 -5.509 c -7.374 -3.395 -15 -6.905 -23.063 -7.153 c -7.774 0.183 -15.448 3.697 -22.869 7.096 c -5.215 2.389 -10.142 4.645 -14.784 5.579 C 6.787 72.81 6.253 72.881 5.748 72.881 z M 20.594 19.143 c -0.795 0 -1.499 0.1 -2.089 0.33 c -8.208 2.64 -19.31 36.403 -15.896 48.189 c 1.005 3.471 2.928 3.403 4.288 3.055 c 4.467 -0.901 9.291 -3.11 14.398 -5.449 c 7.614 -3.487 15.487 -7.093 23.683 -7.277 h 0.052 c 8.48 0.253 16.302 3.854 23.867 7.337 c 5.018 2.31 9.757 4.492 14.154 5.377 c 1.411 0.362 3.334 0.429 4.341 -3.041 c 3.413 -11.787 -7.688 -45.55 -15.839 -48.169 c -2.734 -1.064 -7.771 0.411 -13.106 1.971 c -4.539 1.327 -9.232 2.7 -13.409 2.855 c -0.001 0 -0.002 0 -0.003 0 c -4.677 0 -9.85 -1.563 -14.415 -2.942 C 26.839 20.236 23.219 19.143 20.594 19.143 z" style="stroke: none; strokeWidth: 1; stroke-dasharray: none; strokeLinecap: butt; strokeLinejoin: miter; stroke-miterlimit: 10; fill: rgb(59,59,59); fillRule: nonzero; opacity: 1;" transform=" matrix(1 0 0 1 0 0) " strokeLinecap="round" />
	<path d="M 31.66 38.147 h -2.002 v -2.002 c 0 -2.335 -1.911 -4.246 -4.246 -4.246 s -4.246 1.911 -4.246 4.246 v 2.002 h -2.002 c -2.335 0 -4.246 1.911 -4.246 4.246 c 0 2.335 1.911 4.246 4.246 4.246 h 2.002 v 2.002 c 0 2.335 1.911 4.246 4.246 4.246 s 4.246 -1.911 4.246 -4.246 V 46.64 h 2.002 c 2.335 0 4.246 -1.911 4.246 -4.246 C 35.906 40.058 33.996 38.147 31.66 38.147 z" style="stroke: none; strokeWidth: 1; stroke-dasharray: none; strokeLinecap: butt; strokeLinejoin: miter; stroke-miterlimit: 10; fill: rgb(173,173,173); fillRule: nonzero; opacity: 1;" transform=" matrix(1 0 0 1 0 0) " strokeLinecap="round" />
	<circle cx="65.349" cy="35.279" r="3.039" style="stroke: none; strokeWidth: 1; stroke-dasharray: none; strokeLinecap: butt; strokeLinejoin: miter; stroke-miterlimit: 10; fill: rgb(173,173,173); fillRule: nonzero; opacity: 1;" transform="  matrix(1 0 0 1 0 0) "/>
	<circle cx="65.349" cy="49.869" r="3.039" style="stroke: none; strokeWidth: 1; stroke-dasharray: none; strokeLinecap: butt; strokeLinejoin: miter; stroke-miterlimit: 10; fill: rgb(173,173,173); fillRule: nonzero; opacity: 1;" transform="  matrix(1 0 0 1 0 0) "/>
	<circle cx="58.059000000000005" cy="42.579" r="3.039" style="stroke: none; strokeWidth: 1; stroke-dasharray: none; strokeLinecap: butt; strokeLinejoin: miter; stroke-miterlimit: 10; fill: rgb(173,173,173); fillRule: nonzero; opacity: 1;" transform="  matrix(1 0 0 1 0 0) "/>
	<circle cx="72.639" cy="42.579" r="3.039" style="stroke: none; strokeWidth: 1; stroke-dasharray: none; strokeLinecap: butt; strokeLinejoin: miter; stroke-miterlimit: 10; fill: rgb(173,173,173); fillRule: nonzero; opacity: 1;" transform="  matrix(1 0 0 1 0 0) "/>
</g>
</g>
</svg>